<?xml version="1.0" encoding="UTF-8"?>
<svg id="Layer_2" xmlns="http://www.w3.org/2000/svg" viewBox="0 0 244.97 281.87">
  <g id="DISPLAY">
    <g>
      <path d="M95.29,158.99v-54.85H25.01v54.78H0c0-3.15,0-5.95,0-8.75,0-41.12-.02-82.24.01-123.36C.04,7.56,7.5-.1,26.35.04c27.22.21,54.43.88,81.64.87,30.88-.02,61.77-.58,92.65-.89,3.06-.03,6.12,0,9.65,0v25.21h-89.12v41.16c2.96,0,5.99,0,9.02,0,20.17,0,40.33-.06,60.5.02,15.86.07,23.96,7.76,24.22,23.41.26,15.45.3,30.91-.03,46.35-.31,14.54-8.9,23.14-23.14,23.23-30.38.18-60.76.06-91.14.04-1.52,0-3.04-.25-5.32-.44ZM95.74,77.63V26.16H25.69v51.21h70.33v25.51c19.44.81,24.89,13.45,24.48,30.32h68.61v-41.79h-69.7v-25.36c-7.27,8.37-13.98,13.39-23.67,11.57Z"/>
      <path d="M24.83,256.76h41.93c0-3.18,0-5.96,0-8.74,0-25.64.26-51.28-.17-76.91-.12-7.12,2.17-9.3,8.94-8.59,4.89.51,9.88.1,16,.1v94.29h41.77l-.16-.17v24.82h-42.07v-23.52h-23.33v23.46H25v-24.91l-.17.18Z"/>
      <path d="M25,256.58c-13.55,1.31-24.24-6.01-24.62-18.94-.72-24.26-.1-48.55,0-72.83,0-.44.48-.88,1.23-2.17,5.97,0,12.48-.44,18.86.29,1.73.2,4.33,3.95,4.35,6.09.23,29.25.07,58.5,0,87.74,0,0,.17-.18.17-.18Z"/>
      <path d="M133.31,256.91v-93.71h23.8c.32,1.46.92,2.93.92,4.4.06,22.23.31,44.46-.05,66.69-.25,15.14-9.74,23.34-24.83,22.45,0,0,.16.17.16.17Z"/>
      <path d="M178.64,208.63c17.99-3.11,30.5-10.77,33.61-30.53,2.8,19.61,15.64,27.17,32.72,30.74-6.25,2.24-12.37,5.02-18.79,6.57-6.37,1.53-7.05,6.7-8.72,11.27-1.72,4.7-2.88,9.6-5.41,15.21-2.67-19.6-12.22-31.81-33.41-33.27Z"/>
      <path d="M214.74,258.28v23.58h-24.55v-23.58h24.55Z"/>
    </g>
  </g>
</svg>